{"asset":{"copyright":"Copyright 2020 Trimble Inc. All Rights Reserved.","generator":"SketchUp GLTF Exporter","version":"2.0"},"accessors":[{"bufferView":0,"componentType":5123,"count":6,"type":"SCALAR"},{"bufferView":1,"componentType":5126,"count":6,"type":"VEC3","max":[33.070865631103519,22.834646224975587,0.0],"min":[0.0,0.0,0.0]},{"bufferView":2,"componentType":5126,"count":6,"type":"VEC3","max":[0.0,0.0,-1.0],"min":[0.0,0.0,-1.0]},{"bufferView":3,"componentType":5123,"count":6,"type":"SCALAR"},{"bufferView":4,"componentType":5126,"count":6,"type":"VEC3","max":[33.070865631103519,22.834646224975587,14.9606294631958],"min":[0.0,0.0,14.9606294631958]},{"bufferView":5,"componentType":5126,"count":6,"type":"VEC3","max":[0.0,0.0,1.0],"min":[0.0,0.0,1.0]},{"bufferView":6,"componentType":5123,"count":6,"type":"SCALAR"},{"bufferView":7,"componentType":5126,"count":6,"type":"VEC3","max":[0.0,22.834646224975587,14.9606294631958],"min":[0.0,0.0,0.0]},{"bufferView":8,"componentType":5126,"count":6,"type":"VEC3","max":[-1.0,-0.0,-0.0],"min":[-1.0,-0.0,-0.0]},{"bufferView":9,"componentType":5123,"count":6,"type":"SCALAR"},{"bufferView":10,"componentType":5126,"count":6,"type":"VEC3","max":[33.070865631103519,0.0,14.9606294631958],"min":[0.0,0.0,0.0]},{"bufferView":11,"componentType":5126,"count":6,"type":"VEC3","max":[0.0,-1.0,0.0],"min":[0.0,-1.0,0.0]},{"bufferView":12,"componentType":5123,"count":6,"type":"SCALAR"},{"bufferView":13,"componentType":5126,"count":6,"type":"VEC3","max":[33.070865631103519,22.834646224975587,14.9606294631958],"min":[33.070865631103519,0.0,0.0]},{"bufferView":14,"componentType":5126,"count":6,"type":"VEC3","max":[1.0,-0.0,0.0],"min":[1.0,-0.0,0.0]},{"bufferView":15,"componentType":5123,"count":6,"type":"SCALAR"},{"bufferView":16,"componentType":5126,"count":6,"type":"VEC3","max":[33.070865631103519,22.834646224975587,14.9606294631958],"min":[0.0,22.834646224975587,0.0]},{"bufferView":17,"componentType":5126,"count":6,"type":"VEC3","max":[0.0,1.0,0.0],"min":[0.0,1.0,0.0]}],"bufferViews":[{"buffer":0,"byteOffset":0,"byteLength":12,"target":34963},{"buffer":0,"byteOffset":12,"byteLength":72,"target":34962},{"buffer":0,"byteOffset":84,"byteLength":72,"target":34962},{"buffer":0,"byteOffset":156,"byteLength":12,"target":34963},{"buffer":0,"byteOffset":168,"byteLength":72,"target":34962},{"buffer":0,"byteOffset":240,"byteLength":72,"target":34962},{"buffer":0,"byteOffset":312,"byteLength":12,"target":34963},{"buffer":0,"byteOffset":324,"byteLength":72,"target":34962},{"buffer":0,"byteOffset":396,"byteLength":72,"target":34962},{"buffer":0,"byteOffset":468,"byteLength":12,"target":34963},{"buffer":0,"byteOffset":480,"byteLength":72,"target":34962},{"buffer":0,"byteOffset":552,"byteLength":72,"target":34962},{"buffer":0,"byteOffset":624,"byteLength":12,"target":34963},{"buffer":0,"byteOffset":636,"byteLength":72,"target":34962},{"buffer":0,"byteOffset":708,"byteLength":72,"target":34962},{"buffer":0,"byteOffset":780,"byteLength":12,"target":34963},{"buffer":0,"byteOffset":792,"byteLength":72,"target":34962},{"buffer":0,"byteOffset":864,"byteLength":72,"target":34962}],"buffers":[{"byteLength":936,"uri":"0.bin"}],"materials":[{"pbrMetallicRoughness":{"baseColorFactor":[0.9803921580314636,0.9803921580314636,0.9803921580314636,1.0]},"name":"default_face_material","doubleSided":true},{"pbrMetallicRoughness":{"baseColorFactor":[0.9803921580314636,0.9803921580314636,0.9803921580314636,1.0]},"name":"default_face_material1","doubleSided":true},{"pbrMetallicRoughness":{"baseColorFactor":[0.9803921580314636,0.9803921580314636,0.9803921580314636,1.0]},"name":"default_face_material2","doubleSided":true},{"pbrMetallicRoughness":{"baseColorFactor":[0.9803921580314636,0.9803921580314636,0.9803921580314636,1.0]},"name":"default_face_material3","doubleSided":true},{"pbrMetallicRoughness":{"baseColorFactor":[0.9803921580314636,0.9803921580314636,0.9803921580314636,1.0]},"name":"default_face_material4","doubleSided":true},{"pbrMetallicRoughness":{"baseColorFactor":[0.9803921580314636,0.9803921580314636,0.9803921580314636,1.0]},"name":"default_face_material5","doubleSided":true}],"meshes":[{"primitives":[{"attributes":{"POSITION":1,"NORMAL":2},"indices":0,"material":0},{"attributes":{"NORMAL":5,"POSITION":4},"indices":3,"material":1},{"attributes":{"POSITION":7,"NORMAL":8},"indices":6,"material":2},{"attributes":{"NORMAL":11,"POSITION":10},"indices":9,"material":3},{"attributes":{"POSITION":13,"NORMAL":14},"indices":12,"material":4},{"attributes":{"POSITION":16,"NORMAL":17},"indices":15,"material":5}]}],"nodes":[{"matrix":[0.02539999969303608,0.0,0.0,0.0,0.0,0.0,-0.02539999969303608,0.0,0.0,0.02539999969303608,0.0,0.0,0.0,0.0,0.0,1.0],"mesh":0,"name":"Root Node"}],"scenes":[{"nodes":[0]}],"scene":0}